{"title":"The Wolf Man(1941)MPEG-4[DaScubaDude]","uid":15246255,"size":703464055,"categoryP":"video","categoryS":"movies","magnet":"?xt=urn:btih:f32bbbe39491a1561fb16678beef36c473e25456&amp;dn=The+Wolf+Man%281941%29MPEG-4%5BDaScubaDude%5D&amp;tr=udp%3A%2F%2Ftracker.leechers-paradise.org%3A6969&amp;tr=udp%3A%2F%2Fzer0day.ch%3A1337&amp;tr=udp%3A%2F%2Fopen.demonii.com%3A1337&amp;tr=udp%3A%2F%2Ftracker.coppersurfer.tk%3A6969&amp;tr=udp%3A%2F%2Fexodus.desync.com%3A6969","seeders":0,"leechers":1,"uploader":"dascuba","files":1,"time":1468005105,"description":"The Wolf Man (1941)\r\nApproved | 1h 10min | Drama, Fantasy, Horror | 12 December 1941 (USA)\r\nA practical man returns to his homeland, is attacked by a creature of folklore, and infected with a horrific disease his disciplined mind tells him can not possibly exist.\r\nDirector: George Waggner\r\nWriter: Curt Siodmak (original screenplay)\r\nStars: Claude Rains, Warren William, Lon Chaney Jr. \r\n\r\nGeneral\r\nComplete name                            : The WolfmanTHE_WOLF_MAN_Title1_1.mp4\r\nFormat                                   : MPEG-4\r\nFormat profile                           : Base Media\r\nCodec ID                                 : isom (isom/iso2/avc1/mp41)\r\nFile size                                : 671 MiB\r\nDuration                                 : 1h 9mn\r\nOverall bit rate                         : 1 342 Kbps\r\nMovie name                               : THE_WOLF_MAN\r\nGenre                                    : Horror\r\nWriting application                      : Lavf54.6.100\r\n\r\nVideo\r\nID                                       : 1\r\nFormat                                   : AVC\r\nFormat/Info                              : Advanced Video Codec\r\nFormat profile                           :   \r\nFormat settings, CABAC                   : No\r\nFormat settings, ReFrames                : 6 frames\r\nFormat settings, GOP                     : M=1, N=60\r\nCodec ID                                 : avc1\r\nCodec ID/Info                            : Advanced Video Coding\r\nDuration                                 : 1h 9mn\r\nBit rate                                 : 1 198 Kbps\r\nWidth                                    : 720 pixels\r\nHeight                                   : 540 pixels\r\nDisplay aspect ratio                     : 4:3\r\nFrame rate mode                          : Constant\r\nFrame rate                               : 29.970 (30000/1001) fps\r\nColor space                              : YUV\r\nChroma subsampling                       : 4:2:0\r\nBit depth                                : 8 bits\r\nScan type                                : Progressive\r\nBits/(Pixel*Frame)                       : 0.103\r\nStream size                              : 599 MiB (89%)\r\n\r\nAudio\r\nID                                       : 2\r\nFormat                                   : AAC\r\nFormat/Info                              : Advanced Audio Codec\r\nFormat profile                           : LC\r\nCodec ID                                 : 40\r\nDuration                                 : 1h 9mn\r\nBit rate mode                            : Constant\r\nBit rate                                 : 138 Kbps\r\nChannel(s)                               : 2 channels\r\nChannel positions                        : Front: L R\r\nSampling rate                            : 44.1 KHz\r\nFrame rate                               : 43.066 fps (1024 spf)\r\nCompression mode                         : Lossy\r\nStream size                              : 68.8 MiB (10%)\r\nDefault                                  : Yes\r\nAlternate group                          : 1","torrent":{"xt":"urn:btih:f32bbbe39491a1561fb16678beef36c473e25456","amp;dn":"The+Wolf+Man%281941%29MPEG-4%5BDaScubaDude%5D","amp;tr":["udp%3A%2F%2Ftracker.leechers-paradise.org%3A6969","udp%3A%2F%2Fzer0day.ch%3A1337","udp%3A%2F%2Fopen.demonii.com%3A1337","udp%3A%2F%2Ftracker.coppersurfer.tk%3A6969","udp%3A%2F%2Fexodus.desync.com%3A6969"],"infoHash":"f32bbbe39491a1561fb16678beef36c473e25456","infoHashBuffer":{"type":"Buffer","data":[243,43,187,227,148,145,161,86,31,177,102,120,190,239,54,196,115,226,84,86]},"announce":[],"urlList":[]}}